<svg width="20" height="21" viewBox="0 0 20 21" fill="none" xmlns="http://www.w3.org/2000/svg">
<g id="Ic_wallet">
<path id="Union" fill-rule="evenodd" clip-rule="evenodd" d="M10.4102 2.77634C11.115 2.50921 11.8747 3.03214 11.8747 3.79215V6.45903H5.21634C4.18176 6.45903 3.2458 6.89529 2.58301 7.59324V7.03383C2.58301 6.24905 3.06365 5.55252 3.79329 5.27644L10.4097 2.77652L10.4102 2.77634ZM2.58301 10.0924V10.8421V15.7007C2.58301 17.1495 3.76749 18.334 5.21634 18.334H14.783C16.2319 18.334 17.4163 17.1495 17.4163 15.7007V15.2097H16.332C15.2123 15.2097 14.1352 14.3909 14.034 13.1958C13.9702 12.516 14.229 11.8807 14.6782 11.4396C14.7908 11.3246 14.9152 11.2234 15.049 11.1372C15.3938 10.9148 15.8015 10.7924 16.233 10.7924H17.4163V10.0924C17.4163 8.64351 16.2319 7.45903 14.783 7.45903H5.21634C3.76749 7.45903 2.58301 8.64351 2.58301 10.0924ZM18.4163 15.7007V15.1235C18.931 14.9314 19.2987 14.4411 19.2987 13.8597V12.143C19.2987 11.5616 18.931 11.0713 18.4163 10.8792V10.0924C18.4163 8.09123 16.7842 6.45903 14.783 6.45903H12.8747V3.79215C12.8747 2.3356 11.4179 1.32518 10.0561 1.84115L10.0558 1.84125L3.43962 4.34107L3.4394 4.34115C2.31903 4.76507 1.58301 5.83528 1.58301 7.03383V10.0924V10.8421V15.7007C1.58301 17.7018 3.2152 19.334 5.21634 19.334H14.783C16.7842 19.334 18.4163 17.7018 18.4163 15.7007ZM17.9546 14.2097H17.9419C17.9334 14.2092 17.9249 14.209 17.9163 14.209H16.333C15.6536 14.209 15.0816 13.7125 15.0313 13.1092L15.0313 13.1092L15.0308 13.1033C14.9958 12.7365 15.1349 12.3916 15.3823 12.1501L15.3824 12.1503L15.3912 12.1412C15.4512 12.0796 15.5176 12.0251 15.5895 11.9786C15.7735 11.8597 15.9932 11.793 16.232 11.793H17.9546C18.1556 11.8038 18.2987 11.963 18.2987 12.143V13.8597C18.2987 14.0397 18.1556 14.1989 17.9546 14.2097ZM5.83301 10C5.55687 10 5.33301 10.2239 5.33301 10.5C5.33301 10.7762 5.55687 11 5.83301 11H11.6663C11.9425 11 12.1663 10.7762 12.1663 10.5C12.1663 10.2239 11.9425 10 11.6663 10H5.83301Z" fill="white"/>
</g>
</svg>
